<?xml version="1.0" encoding="UTF-8"?>
<!DOCTYPE svg PUBLIC "-//W3C//DTD SVG 1.1//EN" "http://www.w3.org/Graphics/SVG/1.1/DTD/svg11.dtd">
<!-- Creator: CorelDRAW 2020 (64-Bit) -->
<svg xmlns="http://www.w3.org/2000/svg" xml:space="preserve" width="15mm" height="15mm" version="1.1" style="shape-rendering:geometricPrecision; text-rendering:geometricPrecision; image-rendering:optimizeQuality; fill-rule:evenodd; clip-rule:evenodd"
viewBox="0 0 1500 1500"
 xmlns:xlink="http://www.w3.org/1999/xlink"
 xmlns:xodm="http://www.corel.com/coreldraw/odm/2003">
 <defs>
  <style type="text/css">
   <![CDATA[
    .fil4 {fill:#FEFEFE}
    .fil6 {fill:#F8C798}
    .fil0 {fill:#F6B14C}
    .fil7 {fill:#F4F1F8}
    .fil2 {fill:#E2F1EB}
    .fil5 {fill:#D9CDE5}
    .fil9 {fill:#9DA742}
    .fil3 {fill:#91CFBF}
    .fil8 {fill:#402D4B}
    .fil1 {fill:#402D4B;fill-rule:nonzero}
   ]]>
  </style>
 </defs>
 <g id="Layer_x0020_1">
  <metadata id="CorelCorpID_0Corel-Layer"/>
  <g id="_1616319497072">
   <path class="fil0" d="M743.26 476.73c-245.68,0 -444.85,199.15 -444.85,444.86 0,245.68 199.17,444.86 444.85,444.86 245.69,0 444.85,-199.17 444.85,-444.86 0,-245.7 -199.17,-444.86 -444.85,-444.86z"/>
   <path class="fil1" d="M743.26 1326.72c-217.46,0 -393.72,23.65 -393.72,52.85 0,29.17 176.26,52.83 393.72,52.83 217.44,0 393.72,-23.65 393.72,-52.83 0,-29.19 -176.28,-52.85 -393.72,-52.85z"/>
   <path class="fil2" d="M1307.85 631.53c-12.36,-4.69 -38.36,-7.25 -60.09,-6.82 -21.73,0.43 -50.7,8.95 -52.83,14.92 -2.13,5.96 -7.68,97.58 -20.88,139.75 -13.21,42.18 -77.13,70.31 -98.87,80.53 -21.72,10.23 -26.41,3.84 -30.67,-4.68 -4.26,-8.53 -5.54,-18.33 -10.65,-35.81 -5.12,-17.46 -10.23,-31.53 -17.48,-45.58 -7.25,-14.07 -5.12,-11.94 -9.8,-21.74 -4.69,-9.79 -13.63,-35.79 -13.63,-35.79l-72.42 -2.3 -177.27 -23.12 -177.27 23.12 -72.42 2.3c0,0 -8.94,26 -13.63,35.79 -4.69,9.79 -2.55,7.66 -9.79,21.74 -7.25,14.05 -12.36,28.12 -17.48,45.58 -5.12,17.48 -6.39,27.27 -10.65,35.81 -4.26,8.52 -8.94,14.91 -30.68,4.68 -21.74,-10.23 -85.65,-38.35 -98.87,-80.53 -13.21,-42.18 -18.75,-133.8 -20.88,-139.75 -2.13,-5.97 -31.11,-14.49 -52.83,-14.92 -21.74,-0.42 -47.73,2.13 -60.09,6.82 -12.36,4.68 -14.91,26 -18.33,39.2 -3.4,13.22 -9.39,179.61 47.31,248.85 56.69,69.24 167.46,107.81 198.56,114.63 0,0 11.5,247.12 72.01,345.14l186.63 2.98c0,0 35.37,-92.04 30.69,-167.04l47.72 -3.03 47.72 3.03c-4.68,75 30.67,167.04 30.67,167.04l186.64 -2.98c60.51,-98.01 72.02,-345.14 72.02,-345.14 31.09,-6.82 141.87,-45.39 198.55,-114.63 56.7,-69.24 50.72,-235.63 47.3,-248.85 -3.4,-13.2 -5.97,-34.51 -18.32,-39.2z"/>
   <path class="fil3" d="M1307.85 631.53c-6.69,-2.53 -17.37,-4.45 -29.2,-5.6 8.55,78.98 12.53,297.44 -197.53,336.69 0,0 -21.3,-36.69 -25.14,-64.82 -1.15,-8.46 -3.71,-21.43 -6.87,-35.68 -1.9,-1.8 -3.27,-4.25 -4.59,-6.88 -4.26,-8.53 -5.54,-18.33 -10.65,-35.81 -5.12,-17.46 -10.23,-31.53 -17.48,-45.58 -7.25,-14.07 -5.12,-11.94 -9.8,-21.74 -4.69,-9.79 -13.63,-35.79 -13.63,-35.79l-72.42 -2.3 -0.39 -0.06c-18.55,16.57 -35.09,39.19 -30.78,50.48 0,0 48.59,156.79 28.12,242.02 -16.11,67.11 -91.94,115.18 -174.23,113.87 -82.29,1.32 -158.12,-46.76 -174.23,-113.87 -20.46,-85.23 28.12,-242.02 28.12,-242.02 4.29,-11.28 -12.22,-33.9 -30.78,-50.48l-0.39 0.06 -72.42 2.3c0,0 -8.94,26 -13.63,35.79 -4.69,9.79 -2.55,7.66 -9.79,21.74 -7.25,14.05 -12.36,28.12 -17.48,45.58 -5.12,17.48 -6.39,27.27 -10.65,35.81 -1.32,2.64 -2.69,5.09 -4.59,6.88 -3.18,14.25 -5.71,27.23 -6.87,35.68 -3.84,28.12 -25.14,64.82 -25.14,64.82 -210.06,-39.25 -206.08,-257.72 -197.54,-336.69 -11.83,1.14 -22.51,3.06 -29.2,5.6 -12.36,4.68 -14.91,26 -18.33,39.2 -3.4,13.22 -9.39,179.61 47.31,248.85 56.69,69.24 167.46,107.81 198.56,114.63 0,0 2.52,54.13 11.41,121.79 89.3,-34.83 192.13,22.54 207.66,78.02 17.89,63.91 -41.76,137.23 -41.76,137.23l0 9.78 81.33 1.3c0,0 35.37,-92.04 30.69,-167.04l47.72 -3.03 47.72 3.03c-4.68,75 30.67,167.04 30.67,167.04l81.35 -1.3 0 -9.78c0,0 -59.65,-73.32 -41.76,-137.23 15.52,-55.47 118.37,-112.85 207.66,-78.02 8.89,-67.65 11.41,-121.79 11.41,-121.79 31.09,-6.82 141.87,-45.39 198.55,-114.63 56.7,-69.24 50.72,-235.63 47.3,-248.85 -3.4,-13.2 -5.97,-34.51 -18.32,-39.2z"/>
   <path class="fil3" d="M1032.18 287.93l-577.82 0c-31.88,0 -57.96,26.07 -57.96,57.94l0 310.22c0,31.86 26.08,57.94 57.96,57.94l577.82 0c31.86,0 57.94,-26.08 57.94,-57.94l0 -310.22c0,-31.88 -26.09,-57.94 -57.94,-57.94z"/>
   <path class="fil4" d="M1032.18 287.93l-577.82 0c-19.32,0 -36.51,9.57 -47.06,24.21l0 300.48c0,31.88 25.26,57.94 56.13,57.94l559.65 0c30.87,0 56.12,-26.07 56.12,-57.94l0 -300.48c-10.55,-14.64 -27.72,-24.21 -47.02,-24.21z"/>
   <path class="fil2" d="M1032.18 336.5l-577.82 0c-19.32,0 -36.51,9.59 -47.06,24.23l0 251.89c0,31.88 25.26,57.94 56.13,57.94l559.65 0c30.87,0 56.12,-26.07 56.12,-57.94l0 -251.89c-10.55,-14.64 -27.72,-24.23 -47.02,-24.23z"/>
   <path class="fil5" d="M978.54 382.12l-470.55 0c-5.89,0 -11.25,2.4 -15.11,6.29 -3.88,3.88 -6.3,9.24 -6.3,15.12l0 109.67c0,5.88 2.41,11.22 6.3,15.1 3.88,3.88 9.24,6.3 15.11,6.3l470.55 0c5.87,0 11.22,-2.42 15.12,-6.27 3.88,-3.88 6.28,-9.24 6.28,-15.13l0 -109.67c0,-5.9 -2.4,-11.25 -6.28,-15.13 -3.87,-3.87 -9.23,-6.27 -15.12,-6.27z"/>
   <path class="fil1" d="M1079.2 656.09c0,12.91 -5.3,24.67 -13.82,33.21 -8.53,8.52 -20.29,13.83 -33.21,13.83l-577.82 0c-12.93,0 -24.69,-5.31 -33.23,-13.83 -8.52,-8.53 -13.83,-20.29 -13.83,-33.21l0 -310.22c0,-12.93 5.31,-24.69 13.83,-33.21 8.54,-8.54 20.3,-13.83 33.23,-13.83l577.82 0c12.91,0 24.67,5.29 33.21,13.83 8.52,8.52 13.82,20.28 13.82,33.21l0 310.22zm-47.02 -379.08l-577.82 0c-18.96,0 -36.18,7.75 -48.64,20.22 -12.48,12.48 -20.22,29.7 -20.22,48.64l0 310.22c0,18.94 7.74,36.16 20.22,48.63 12.46,12.48 29.69,20.22 48.64,20.22l577.82 0c18.93,0 36.15,-7.74 48.63,-20.22 12.48,-12.47 20.22,-29.69 20.22,-48.63l0 -310.22c0,-18.94 -7.74,-36.16 -20.22,-48.64 -12.48,-12.47 -29.7,-20.22 -48.63,-20.22z"/>
   <path class="fil1" d="M990.59 511.2c0,5.68 -2.33,10.83 -6.05,14.58l-0.03 -0.03c-3.74,3.75 -8.89,6.08 -14.55,6.08l-453.39 0c-5.66,0 -10.82,-2.33 -14.57,-6.08 -3.74,-3.74 -6.06,-8.89 -6.06,-14.55l0 -105.68c0,-5.67 2.32,-10.81 6.06,-14.56l-0.01 -0.02c3.74,-3.73 8.89,-6.04 14.58,-6.04l453.39 0c5.67,0 10.83,2.31 14.58,6.04 3.72,3.75 6.05,8.9 6.05,14.58l0 105.68zm9.31 -135.66c-7.7,-7.68 -18.28,-12.45 -29.94,-12.45l-453.39 0c-11.66,0 -22.26,4.77 -29.94,12.45l-0.04 0c-7.68,7.68 -12.45,18.3 -12.45,29.99l0 105.68c0,11.68 4.77,22.29 12.45,29.98 7.68,7.68 18.3,12.45 29.99,12.45l453.39 0c11.68,0 22.29,-4.77 29.98,-12.45l0 -0.04c7.68,-7.68 12.45,-18.28 12.45,-29.94l0 -105.68c0,-11.66 -4.77,-22.26 -12.45,-29.94l-0.04 -0.05z"/>
   <path class="fil3" d="M903.48 597.94l-320.43 0c-9.38,0 -17.05,7.67 -17.05,17.04l0 149.14c0,9.38 7.68,17.04 17.05,17.04l320.43 0c9.38,0 17.05,-7.66 17.05,-17.04l0 -149.14c0,-9.38 -7.68,-17.04 -17.05,-17.04z"/>
   <path class="fil1" d="M909.62 764.13c0,1.66 -0.69,3.21 -1.8,4.32l0 0.04c-1.1,1.1 -2.62,1.77 -4.34,1.77l-320.43 0c-1.71,0 -3.24,-0.67 -4.33,-1.77l-0.04 -0.04c-1.08,-1.1 -1.76,-2.62 -1.76,-4.32l0 -149.14c0,-1.71 0.68,-3.24 1.76,-4.32l0.04 0c1.12,-1.12 2.65,-1.81 4.33,-1.81l320.43 0c1.68,0 3.21,0.69 4.34,1.81 1.11,1.11 1.8,2.64 1.8,4.32l0 149.14zm-6.13 -177.09l-320.43 0c-7.71,0 -14.7,3.13 -19.75,8.19l0.01 0.03c-5.07,5.09 -8.22,12.08 -8.22,19.73l0 149.14c0,7.65 3.15,14.62 8.21,19.7l0.04 0.04c5.08,5.07 12.06,8.21 19.71,8.21l320.43 0c7.66,0 14.65,-3.15 19.72,-8.22l0.03 0.01c5.05,-5.05 8.21,-12.04 8.21,-19.74l0 -149.14c0,-7.7 -3.15,-14.69 -8.21,-19.75 -5.05,-5.06 -12.04,-8.19 -19.75,-8.19z"/>
   <path class="fil2" d="M866.68 633.74l-246.84 0c-5.72,0 -10.38,4.68 -10.38,10.38l0 90.87c0,5.72 4.66,10.39 10.38,10.39l246.84 0c5.72,0 10.38,-4.68 10.38,-10.39l0 -90.87c0,-5.7 -4.67,-10.38 -10.38,-10.38z"/>
   <path class="fil1" d="M866.16 734.48l-245.79 0 0 -89.84 245.79 0 0 89.84zm0.52 -111.64l-246.84 0c-5.84,0 -11.14,2.4 -15.01,6.27l-0.03 -0.03c-3.86,3.85 -6.24,9.18 -6.24,15.04l0 90.87c0,5.82 2.38,11.14 6.24,15.01l0.05 0.03c3.87,3.86 9.18,6.25 15,6.25l246.84 0c5.85,0 11.19,-2.4 15.05,-6.25l-0.03 -0.01c3.87,-3.87 6.27,-9.19 6.27,-15.03l0 -90.87c0,-5.87 -2.38,-11.19 -6.24,-15.04 -3.86,-3.86 -9.2,-6.24 -15.05,-6.24z"/>
   <path class="fil6" d="M369.57 460.92c0,8.65 -2.25,16.8 -6.19,23.87l121.67 0 0 -47.73 -121.67 0c3.94,7.06 6.19,15.19 6.19,23.87z"/>
   <path class="fil1" d="M474.13 447.96l0 25.9 -95.1 0c0.94,-4.23 1.44,-8.58 1.44,-12.94 0,-4.38 -0.5,-8.72 -1.44,-12.96l95.1 0zm-129.31 -21.81l9.05 16.19c1.56,2.8 2.79,5.82 3.62,8.97 0.76,2.97 1.19,6.19 1.19,9.62 0,3.4 -0.42,6.63 -1.19,9.62 -0.82,3.15 -2.06,6.16 -3.62,8.95l-9.05 16.2 151.13 0 0 -69.54 -151.13 0z"/>
   <path class="fil3" d="M320.56 411.92c-27.06,0 -49,21.93 -49,49 0,27.06 21.94,48.99 49,48.99 27.06,0 49,-21.93 49,-48.99 0,-27.07 -21.94,-49 -49,-49z"/>
   <path class="fil1" d="M347.5 487.85c-6.9,6.9 -16.42,11.16 -26.94,11.16 -10.51,0 -20.04,-4.26 -26.94,-11.16 -6.88,-6.88 -11.16,-16.41 -11.16,-26.93 0,-10.51 4.27,-20.06 11.16,-26.94 6.9,-6.9 16.43,-11.16 26.94,-11.16 10.52,0 20.04,4.26 26.94,11.16 6.88,6.88 11.16,16.43 11.16,26.94 0,10.51 -4.28,20.04 -11.16,26.93zm-26.94 -86.84c-16.54,0 -31.53,6.71 -42.36,17.54 -10.85,10.84 -17.55,25.83 -17.55,42.38 0,16.53 6.7,31.51 17.55,42.36 10.83,10.83 25.81,17.55 42.36,17.55 16.55,0 31.52,-6.72 42.36,-17.55 10.85,-10.84 17.55,-25.83 17.55,-42.36 0,-16.55 -6.7,-31.53 -17.55,-42.38 -10.84,-10.83 -25.81,-17.54 -42.36,-17.54z"/>
   <path class="fil2" d="M608.64 192.01c-2.77,0 -5.5,-0.24 -8.14,-0.69l55.77 96.6 62.97 0 -69.08 -119.67c-8.37,14.22 -23.83,23.76 -41.52,23.76z"/>
   <path class="fil1" d="M662.5 277l-43.32 -75.03c6.71,-1.2 13.02,-3.55 18.74,-6.83 3.84,-2.2 7.43,-4.83 10.67,-7.83l51.79 89.68 -37.88 0zm-12.24 -130.33l-9.48 16.09c-3.28,5.55 -8.01,10.22 -13.68,13.47 -5.43,3.11 -11.73,4.88 -18.47,4.88 -1.11,0 -2.17,-0.04 -3.2,-0.13 -1.18,-0.09 -2.23,-0.23 -3.16,-0.39l-22.75 -3.87 70.5 122.12 88.08 0 -78.52 -136.02 -9.32 -16.14z"/>
   <path class="fil3" d="M608.64 95.72c-26.59,0 -48.15,21.55 -48.15,48.15 0,26.6 21.56,48.15 48.15,48.15 26.6,0 48.15,-21.55 48.15,-48.15 0,-26.6 -21.55,-48.15 -48.15,-48.15z"/>
   <path class="fil1" d="M634.97 170.21c-6.74,6.74 -16.05,10.9 -26.33,10.9 -10.29,0 -19.61,-4.17 -26.34,-10.9 -6.73,-6.74 -10.9,-16.05 -10.9,-26.34 0,-10.29 4.17,-19.59 10.9,-26.32 6.74,-6.75 16.05,-10.92 26.34,-10.92 10.27,0 19.59,4.17 26.33,10.92 6.74,6.73 10.92,16.03 10.92,26.32 0,10.29 -4.17,19.59 -10.92,26.34zm-26.33 -85.39c-16.3,0 -31.08,6.62 -41.76,17.29 -10.7,10.68 -17.31,25.46 -17.31,41.76 0,16.31 6.61,31.07 17.31,41.76 10.68,10.68 25.46,17.3 41.76,17.3 16.31,0 31.07,-6.62 41.76,-17.3 10.68,-10.69 17.3,-25.45 17.3,-41.76 0,-16.3 -6.62,-31.08 -17.3,-41.76 -10.69,-10.68 -25.45,-17.29 -41.76,-17.29z"/>
   <path class="fil6" d="M1001.49 437.06l0 47.73 121.66 0c-3.94,-7.06 -6.19,-15.21 -6.19,-23.87 0,-8.67 2.25,-16.8 6.19,-23.87l-121.66 0z"/>
   <path class="fil1" d="M1107.49 473.87l-95.1 0 0 -25.9 95.1 0c-0.94,4.24 -1.44,8.58 -1.44,12.96 0,4.37 0.49,8.71 1.44,12.94zm21.56 -3.33c-0.77,-2.99 -1.18,-6.21 -1.18,-9.62 0,-3.42 0.42,-6.64 1.18,-9.62 0.83,-3.15 2.04,-6.17 3.62,-8.97l9.05 -16.19 -151.12 0 0 69.54 151.12 0 -9.06 -16.2c-1.56,-2.79 -2.78,-5.81 -3.6,-8.95z"/>
   <path class="fil3" d="M1165.96 411.92c-27.06,0 -49,21.93 -49,49 0,27.06 21.94,48.99 49,48.99 27.06,0 49.01,-21.93 49.01,-48.99 0,-27.07 -21.94,-49 -49.01,-49z"/>
   <path class="fil1" d="M1192.9 487.85c-6.9,6.9 -16.42,11.16 -26.94,11.16 -10.51,0 -20.04,-4.26 -26.94,-11.16 -6.89,-6.88 -11.16,-16.41 -11.16,-26.93 0,-10.51 4.27,-20.06 11.16,-26.94 6.9,-6.9 16.42,-11.16 26.94,-11.16 10.52,0 20.04,4.26 26.94,11.16 6.88,6.88 11.14,16.43 11.14,26.94 0,10.51 -4.26,20.04 -11.14,26.93zm-26.94 -86.84c-16.54,0 -31.53,6.71 -42.36,17.54 -10.85,10.84 -17.55,25.83 -17.55,42.38 0,16.53 6.7,31.51 17.55,42.36 10.83,10.83 25.82,17.55 42.36,17.55 16.55,0 31.52,-6.72 42.36,-17.55 10.85,-10.84 17.55,-25.83 17.55,-42.36 0,-16.55 -6.7,-31.53 -17.55,-42.38 -10.85,-10.83 -25.82,-17.54 -42.36,-17.54z"/>
   <path class="fil1" d="M1086.91 1021.45c-1.21,-20.29 -3.19,-39.93 -5.8,-58.83 -4.35,-31.38 -10.4,-60.75 -17.43,-87.86 39.56,-5.89 150.45,-39.36 139.77,-229.21 13.61,-5.87 50.76,-17.37 105.7,0.18 9.88,42.66 61.12,314.44 -222.24,375.72zm-687.3 0c-283.38,-61.27 -232.12,-333.06 -222.24,-375.72 54.95,-17.55 92.1,-6.04 105.69,-0.18 -10.66,189.85 100.22,223.32 139.77,229.21 -7.02,27.11 -13.06,56.48 -17.42,87.86 -2.61,18.9 -4.59,38.53 -5.81,58.83zm922.25 -394.41c-79.19,-27.55 -129.96,-0.42 -134.85,2.37 -3.66,1.97 -6.03,5.96 -5.71,10.37 13.09,183.95 -92.73,210.16 -123.41,213.9 -18.49,-63.9 -41.76,-113.49 -58.68,-144.81 -2.85,-5.29 -9.45,-7.27 -14.75,-4.42 -5.3,2.83 -7.29,9.45 -4.44,14.75 24.84,45.96 63.78,132.52 79.51,246.42 15.59,112.73 8.41,252.21 -57.62,405.63l-174.58 0c-9.68,-20.25 -17.26,-44.21 -21.42,-71.4 -3.79,-24.75 -4.71,-52.16 -1.75,-81.83 35.73,-8.88 67.14,-25.9 86.21,-51.11 3.63,-4.77 2.7,-11.59 -2.09,-15.21 -4.77,-3.63 -11.58,-2.69 -15.21,2.08 -16.94,22.34 -46.12,37.16 -79.34,44.48 -1.26,0.05 -2.46,0.32 -3.6,0.77 -30.24,6.12 -63.51,6.12 -93.76,0 -1.12,-0.45 -2.34,-0.72 -3.59,-0.77 -33.21,-7.32 -62.4,-22.14 -79.33,-44.48 -3.63,-4.77 -10.44,-5.71 -15.21,-2.08 -4.78,3.62 -5.72,10.44 -2.09,15.21 19.07,25.2 50.48,42.23 86.21,51.11 2.96,29.67 2.02,57.08 -1.75,81.83 -4.15,27.19 -11.75,51.15 -21.44,71.4l-174.57 0c-66.03,-153.42 -73.2,-292.9 -57.62,-405.63 15.74,-113.89 54.68,-200.46 79.51,-246.42 2.85,-5.3 0.86,-11.91 -4.44,-14.75 -5.28,-2.85 -11.89,-0.87 -14.75,4.42 -16.92,31.32 -40.19,80.91 -58.69,144.81 -30.66,-3.74 -136.48,-29.95 -123.39,-213.9 0.31,-4.41 -2.06,-8.4 -5.71,-10.37 -4.89,-2.79 -55.67,-29.92 -134.85,-2.37 -3.56,1.23 -6.05,4.12 -6.95,7.5 -0.27,0.98 -93.15,339.47 240.88,408.9 -3.06,100.67 13.56,216.63 68.16,341.34 0.55,1.29 1.33,2.41 2.28,3.36l-0.03 0.01c0.01,0.02 -0.35,-0.25 0.04,0.3 2.12,2.97 5.46,4.56 8.87,4.56l0 0.05 187.98 0c4.51,0 8.38,-2.76 10.05,-6.66 11.94,-23.33 21.33,-51.33 26.22,-83.33 3.75,-24.6 4.88,-51.59 2.48,-80.65 25.32,3.8 51.9,3.8 77.22,0 -2.4,29.07 -1.27,56.06 2.48,80.65 4.89,31.99 14.28,60 26.22,83.33 1.65,3.9 5.53,6.66 10.05,6.66l187.98 0 0 -0.05c3.41,0 6.75,-1.59 8.87,-4.56 0.39,-0.56 0.02,-0.29 0.03,-0.3l-0.01 -0.01c0.94,-0.95 1.72,-2.07 2.28,-3.36 54.6,-124.71 71.22,-240.67 68.14,-341.34 334.05,-69.43 241.15,-407.92 240.9,-408.9 -0.9,-3.38 -3.4,-6.27 -6.94,-7.5z"/>
   <path class="fil2" d="M836.37 168.25l-69.09 119.67 62.99 0 55.77 -96.6c-2.64,0.45 -5.37,0.69 -8.14,0.69 -17.68,0 -33.15,-9.54 -41.52,-23.76z"/>
   <path class="fil1" d="M824.02 277l-37.88 0 51.78 -89.68c3.25,3 6.83,5.62 10.68,7.83 5.72,3.27 12.03,5.62 18.74,6.83l-43.32 75.03zm57.06 -96.03c-1.02,0.09 -2.09,0.13 -3.2,0.13 -6.74,0 -13.03,-1.77 -18.47,-4.88 -5.67,-3.25 -10.41,-7.92 -13.68,-13.47l-9.48 -16.09 -78.4 135.79 -9.44 16.37 88.08 0 70.5 -122.12 -22.75 3.87c-0.93,0.16 -1.98,0.3 -3.16,0.39z"/>
   <path class="fil3" d="M877.89 95.72c-26.6,0 -48.15,21.55 -48.15,48.15 0,26.6 21.55,48.15 48.15,48.15 26.6,0 48.15,-21.55 48.15,-48.15 0,-26.6 -21.55,-48.15 -48.15,-48.15z"/>
   <path class="fil1" d="M904.23 170.21c-6.75,6.74 -16.05,10.9 -26.34,10.9 -10.27,0 -19.59,-4.17 -26.34,-10.9 -6.73,-6.74 -10.9,-16.05 -10.9,-26.34 0,-10.29 4.17,-19.59 10.9,-26.32 6.75,-6.75 16.07,-10.92 26.34,-10.92 10.29,0 19.61,4.17 26.34,10.92 6.74,6.73 10.9,16.03 10.9,26.32 0,10.29 -4.17,19.59 -10.9,26.34zm-26.34 -85.39c-16.3,0 -31.06,6.62 -41.76,17.29 -10.68,10.68 -17.29,25.46 -17.29,41.76 0,16.31 6.62,31.07 17.29,41.76 10.7,10.68 25.46,17.3 41.76,17.3 16.3,0 31.08,-6.62 41.76,-17.3 10.7,-10.69 17.29,-25.45 17.29,-41.76 0,-16.3 -6.6,-31.08 -17.29,-41.76 -10.68,-10.68 -25.46,-17.29 -41.76,-17.29z"/>
   <polygon class="fil7" points="606.38,390.94 516.3,481.02 516.3,505.46 630.81,390.94 "/>
   <polygon class="fil7" points="743.26,390.94 717.42,390.94 582.59,525.78 638.1,525.78 772.93,390.94 "/>
   <path class="fil7" d="M661.89 390.94l-133.53 133.53c2.13,0.84 4.46,1.3 6.87,1.3l16.26 0 134.84 -134.83 -24.44 0z"/>
   <polygon class="fil7" points="848.43,390.94 713.6,525.78 738.03,525.78 872.87,390.94 "/>
   <path class="fil7" d="M958.17 392.24l-133.54 133.54 55.51 0 90.09 -90.07 0 -25.83c0,-5.22 -2.13,-9.94 -5.55,-13.38 -1.84,-1.83 -4.05,-3.3 -6.51,-4.26z"/>
   <polygon class="fil7" points="903.94,390.94 769.11,525.78 793.54,525.78 928.38,390.94 "/>
   <path class="fil8" d="M382.67 1234.74c-14.55,25.24 -17.28,56.83 -4.62,85.53 12.66,28.7 37.86,47.95 66.3,54.22 14.55,-25.24 17.28,-56.84 4.62,-85.53 -12.66,-28.7 -37.85,-47.96 -66.3,-54.23z"/>
   <path class="fil8" d="M387.13 1310.74c-29.23,-11.32 -60.67,-7.14 -85.21,8.55 7.56,28.12 27.96,52.41 57.21,63.73 29.24,11.34 60.68,7.15 85.22,-8.54 -7.56,-28.14 -27.96,-52.41 -57.21,-63.75z"/>
   <path class="fil9" d="M381.74 1324.71c-20.14,-7.8 -42.23,-7.07 -61.55,1.66l105.88 41.04c-8.38,-19.47 -24.21,-34.9 -44.34,-42.7z"/>
   <path class="fil9" d="M390.59 1252.68l42.04 95.26c1.53,2.4 2.97,4.88 4.28,7.4 7.35,-19.38 6.91,-40.98 -1.63,-60.33 -8.72,-19.75 -24.86,-34.85 -44.69,-42.33z"/>
  </g>
 </g>
</svg>
