<?xml version="1.0" encoding="UTF-8"?>
<!DOCTYPE svg PUBLIC "-//W3C//DTD SVG 1.1//EN" "http://www.w3.org/Graphics/SVG/1.1/DTD/svg11.dtd">
<!-- Creator: CorelDRAW 2020 (64-Bit) -->
<svg xmlns="http://www.w3.org/2000/svg" xml:space="preserve" width="10mm" height="10mm" version="1.1" style="shape-rendering:geometricPrecision; text-rendering:geometricPrecision; image-rendering:optimizeQuality; fill-rule:evenodd; clip-rule:evenodd"
viewBox="0 0 1000 1000"
 xmlns:xlink="http://www.w3.org/1999/xlink"
 xmlns:xodm="http://www.corel.com/coreldraw/odm/2003">
 <defs>
  <style type="text/css">
   <![CDATA[
    .fil4 {fill:#FEFEFE}
    .fil6 {fill:#F8C798}
    .fil0 {fill:#F6B14C}
    .fil7 {fill:#F4F1F8}
    .fil2 {fill:#E2F1EB}
    .fil5 {fill:#D9CDE5}
    .fil9 {fill:#9DA742}
    .fil3 {fill:#91CFBF}
    .fil8 {fill:#402D4B}
    .fil1 {fill:#402D4B;fill-rule:nonzero}
   ]]>
  </style>
 </defs>
 <g id="Layer_x0020_1">
  <metadata id="CorelCorpID_0Corel-Layer"/>
  <g id="_1616451093744">
   <path class="fil0" d="M495.51 317.82c-163.79,0 -296.57,132.77 -296.57,296.57 0,163.79 132.78,296.57 296.57,296.57 163.79,0 296.57,-132.78 296.57,-296.57 0,-163.8 -132.78,-296.57 -296.57,-296.57z"/>
   <path class="fil1" d="M495.51 884.48c-144.97,0 -262.48,15.77 -262.48,35.23 0,19.45 117.51,35.22 262.48,35.22 144.96,0 262.48,-15.77 262.48,-35.22 0,-19.46 -117.52,-35.23 -262.48,-35.23z"/>
   <path class="fil2" d="M871.9 421.02c-8.24,-3.13 -25.57,-4.83 -40.06,-4.55 -14.49,0.29 -33.8,5.97 -35.22,9.95 -1.42,3.97 -5.12,65.05 -13.92,93.17 -8.81,28.12 -51.42,46.87 -65.91,53.69 -14.48,6.82 -17.61,2.56 -20.45,-3.12 -2.84,-5.69 -3.69,-12.22 -7.1,-23.87 -3.41,-11.64 -6.82,-21.02 -11.65,-30.39 -4.83,-9.38 -3.41,-7.96 -6.53,-14.49 -3.13,-6.53 -9.09,-23.86 -9.09,-23.86l-48.28 -1.53 -118.18 -15.41 -118.18 15.41 -48.28 1.53c0,0 -5.96,17.33 -9.09,23.86 -3.13,6.53 -1.7,5.11 -6.53,14.49 -4.83,9.37 -8.24,18.75 -11.65,30.39 -3.41,11.65 -4.26,18.18 -7.1,23.87 -2.84,5.68 -5.96,9.94 -20.45,3.12 -14.49,-6.82 -57.1,-25.57 -65.91,-53.69 -8.81,-28.12 -12.5,-89.2 -13.92,-93.17 -1.42,-3.98 -20.74,-9.66 -35.22,-9.95 -14.49,-0.28 -31.82,1.42 -40.06,4.55 -8.24,3.12 -9.94,17.33 -12.22,26.13 -2.27,8.81 -6.26,119.74 31.54,165.9 37.79,46.16 111.64,71.87 132.37,76.42 0,0 7.67,164.75 48.01,230.09l124.42 1.99c0,0 23.58,-61.36 20.46,-111.36l31.81 -2.02 31.81 2.02c-3.12,50 20.45,111.36 20.45,111.36l124.43 -1.99c40.34,-65.34 48.01,-230.09 48.01,-230.09 20.73,-4.55 94.58,-30.26 132.37,-76.42 37.8,-46.16 33.81,-157.09 31.53,-165.9 -2.27,-8.8 -3.98,-23.01 -12.21,-26.13z"/>
   <path class="fil3" d="M871.9 421.02c-4.46,-1.69 -11.58,-2.97 -19.47,-3.73 5.7,52.65 8.35,198.29 -131.69,224.46 0,0 -14.2,-24.46 -16.76,-43.21 -0.77,-5.64 -2.47,-14.29 -4.58,-23.79 -1.27,-1.2 -2.18,-2.83 -3.06,-4.59 -2.84,-5.69 -3.69,-12.22 -7.1,-23.87 -3.41,-11.64 -6.82,-21.02 -11.65,-30.39 -4.83,-9.38 -3.41,-7.96 -6.53,-14.49 -3.13,-6.53 -9.09,-23.86 -9.09,-23.86l-48.28 -1.53 -0.26 -0.04c-12.37,11.05 -23.39,26.13 -20.52,33.65 0,0 32.39,104.53 18.75,161.35 -10.74,44.74 -61.29,76.79 -116.15,75.91 -54.86,0.88 -105.41,-31.17 -116.15,-75.91 -13.64,-56.82 18.75,-161.35 18.75,-161.35 2.86,-7.52 -8.15,-22.6 -20.52,-33.65l-0.26 0.04 -48.28 1.53c0,0 -5.96,17.33 -9.09,23.86 -3.13,6.53 -1.7,5.11 -6.53,14.49 -4.83,9.37 -8.24,18.75 -11.65,30.39 -3.41,11.65 -4.26,18.18 -7.1,23.87 -0.88,1.76 -1.79,3.39 -3.06,4.59 -2.12,9.5 -3.81,18.15 -4.58,23.79 -2.56,18.75 -16.76,43.21 -16.76,43.21 -140.04,-26.17 -137.39,-171.81 -131.69,-224.46 -7.89,0.76 -15.01,2.04 -19.47,3.73 -8.24,3.12 -9.94,17.33 -12.22,26.13 -2.27,8.81 -6.26,119.74 31.54,165.9 37.79,46.16 111.64,71.87 132.37,76.42 0,0 1.68,36.09 7.61,81.19 59.53,-23.22 128.09,15.03 138.44,52.01 11.93,42.61 -27.84,91.49 -27.84,91.49l0 6.52 54.22 0.87c0,0 23.58,-61.36 20.46,-111.36l31.81 -2.02 31.81 2.02c-3.12,50 20.45,111.36 20.45,111.36l54.23 -0.87 0 -6.52c0,0 -39.77,-48.88 -27.84,-91.49 10.35,-36.98 78.91,-75.23 138.44,-52.01 5.93,-45.1 7.61,-81.19 7.61,-81.19 20.73,-4.55 94.58,-30.26 132.37,-76.42 37.8,-46.16 33.81,-157.09 31.53,-165.9 -2.27,-8.8 -3.98,-23.01 -12.21,-26.13z"/>
   <path class="fil3" d="M688.12 191.95l-385.21 0c-21.25,0 -38.64,17.38 -38.64,38.63l0 206.81c0,21.24 17.39,38.63 38.64,38.63l385.21 0c21.24,0 38.63,-17.39 38.63,-38.63l0 -206.81c0,-21.25 -17.39,-38.63 -38.63,-38.63z"/>
   <path class="fil4" d="M688.12 191.95l-385.21 0c-12.88,0 -24.34,6.38 -31.37,16.14l0 200.32c0,21.25 16.84,38.63 37.42,38.63l373.1 0c20.58,0 37.41,-17.38 37.41,-38.63l0 -200.32c-7.03,-9.76 -18.48,-16.14 -31.35,-16.14z"/>
   <path class="fil2" d="M688.12 224.33l-385.21 0c-12.88,0 -24.34,6.39 -31.37,16.15l0 167.93c0,21.25 16.84,38.63 37.42,38.63l373.1 0c20.58,0 37.41,-17.38 37.41,-38.63l0 -167.93c-7.03,-9.76 -18.48,-16.15 -31.35,-16.15z"/>
   <path class="fil5" d="M652.36 254.75l-313.7 0c-3.93,0 -7.5,1.6 -10.07,4.19 -2.59,2.59 -4.2,6.16 -4.2,10.08l0 73.11c0,3.92 1.61,7.48 4.2,10.07 2.59,2.59 6.16,4.2 10.07,4.2l313.7 0c3.91,0 7.48,-1.61 10.08,-4.18 2.59,-2.59 4.19,-6.16 4.19,-10.09l0 -73.11c0,-3.93 -1.6,-7.5 -4.19,-10.09 -2.58,-2.58 -6.15,-4.18 -10.08,-4.18z"/>
   <path class="fil1" d="M719.47 437.39c0,8.61 -3.53,16.45 -9.21,22.14 -5.69,5.68 -13.53,9.22 -22.14,9.22l-385.21 0c-8.62,0 -16.46,-3.54 -22.15,-9.22 -5.68,-5.69 -9.22,-13.53 -9.22,-22.14l0 -206.81c0,-8.62 3.54,-16.46 9.22,-22.14 5.69,-5.69 13.53,-9.22 22.15,-9.22l385.21 0c8.61,0 16.45,3.53 22.14,9.22 5.68,5.68 9.21,13.52 9.21,22.14l0 206.81zm-31.35 -252.72l-385.21 0c-12.64,0 -24.12,5.17 -32.43,13.48 -8.32,8.32 -13.48,19.8 -13.48,32.43l0 206.81c0,12.63 5.16,24.11 13.48,32.42 8.31,8.32 19.79,13.48 32.43,13.48l385.21 0c12.62,0 24.1,-5.16 32.42,-13.48 8.32,-8.31 13.48,-19.79 13.48,-32.42l0 -206.81c0,-12.63 -5.16,-24.11 -13.48,-32.43 -8.32,-8.31 -19.8,-13.48 -32.42,-13.48z"/>
   <path class="fil1" d="M660.39 340.8c0,3.79 -1.55,7.22 -4.03,9.72l-0.02 -0.02c-2.49,2.5 -5.93,4.05 -9.7,4.05l-302.26 0c-3.77,0 -7.21,-1.55 -9.71,-4.05 -2.49,-2.49 -4.04,-5.93 -4.04,-9.7l0 -70.45c0,-3.78 1.55,-7.21 4.04,-9.71l-0.01 -0.01c2.49,-2.49 5.93,-4.03 9.72,-4.03l302.26 0c3.78,0 7.22,1.54 9.72,4.03 2.48,2.5 4.03,5.93 4.03,9.72l0 70.45zm6.21 -90.44c-5.13,-5.12 -12.19,-8.3 -19.96,-8.3l-302.26 0c-7.77,0 -14.84,3.18 -19.96,8.3l-0.03 0c-5.12,5.12 -8.3,12.2 -8.3,19.99l0 70.45c0,7.79 3.18,14.86 8.3,19.99 5.12,5.12 12.2,8.3 19.99,8.3l302.26 0c7.79,0 14.86,-3.18 19.99,-8.3l0 -0.03c5.12,-5.12 8.3,-12.19 8.3,-19.96l0 -70.45c0,-7.77 -3.18,-14.84 -8.3,-19.96l-0.03 -0.03z"/>
   <path class="fil3" d="M602.32 398.63l-213.62 0c-6.25,0 -11.37,5.11 -11.37,11.36l0 99.43c0,6.25 5.12,11.36 11.37,11.36l213.62 0c6.25,0 11.37,-5.11 11.37,-11.36l0 -99.43c0,-6.25 -5.12,-11.36 -11.37,-11.36z"/>
   <path class="fil1" d="M606.41 509.42c0,1.11 -0.46,2.14 -1.2,2.88l0 0.03c-0.73,0.73 -1.75,1.18 -2.89,1.18l-213.62 0c-1.14,0 -2.16,-0.45 -2.89,-1.18l-0.03 -0.03c-0.72,-0.73 -1.17,-1.75 -1.17,-2.88l0 -99.43c0,-1.14 0.45,-2.16 1.17,-2.88l0.03 0c0.75,-0.75 1.77,-1.21 2.89,-1.21l213.62 0c1.12,0 2.14,0.46 2.89,1.21 0.74,0.74 1.2,1.76 1.2,2.88l0 99.43zm-4.09 -118.06l-213.62 0c-5.14,0 -9.8,2.09 -13.17,5.46l0.01 0.02c-3.38,3.39 -5.48,8.05 -5.48,13.15l0 99.43c0,5.1 2.1,9.75 5.47,13.13l0.03 0.03c3.39,3.38 8.04,5.47 13.14,5.47l213.62 0c5.11,0 9.77,-2.1 13.15,-5.48l0.02 0.01c3.37,-3.37 5.47,-8.03 5.47,-13.16l0 -99.43c0,-5.13 -2.1,-9.79 -5.47,-13.17 -3.37,-3.37 -8.03,-5.46 -13.17,-5.46z"/>
   <path class="fil2" d="M577.79 422.49l-164.56 0c-3.81,0 -6.92,3.12 -6.92,6.92l0 60.58c0,3.81 3.11,6.93 6.92,6.93l164.56 0c3.81,0 6.92,-3.12 6.92,-6.93l0 -60.58c0,-3.8 -3.11,-6.92 -6.92,-6.92z"/>
   <path class="fil1" d="M577.44 489.65l-163.86 0 0 -59.89 163.86 0 0 59.89zm0.35 -74.43l-164.56 0c-3.89,0 -7.43,1.6 -10.01,4.18l-0.02 -0.02c-2.57,2.57 -4.16,6.12 -4.16,10.03l0 60.58c0,3.88 1.59,7.43 4.16,10.01l0.03 0.02c2.58,2.57 6.12,4.17 10,4.17l164.56 0c3.9,0 7.46,-1.6 10.03,-4.17l-0.02 -0.01c2.58,-2.58 4.18,-6.13 4.18,-10.02l0 -60.58c0,-3.91 -1.59,-7.46 -4.16,-10.03 -2.57,-2.57 -6.13,-4.16 -10.03,-4.16z"/>
   <path class="fil6" d="M246.38 307.28c0,5.77 -1.5,11.2 -4.13,15.91l81.11 0 0 -31.82 -81.11 0c2.63,4.71 4.13,10.13 4.13,15.91z"/>
   <path class="fil1" d="M316.09 298.64l0 17.27 -63.4 0c0.63,-2.82 0.96,-5.72 0.96,-8.63 0,-2.92 -0.33,-5.81 -0.96,-8.64l63.4 0zm-86.21 -14.54l6.03 10.79c1.04,1.87 1.86,3.88 2.41,5.98 0.51,1.98 0.79,4.13 0.79,6.41 0,2.27 -0.28,4.42 -0.79,6.41 -0.55,2.1 -1.37,4.11 -2.41,5.97l-6.03 10.8 100.75 0 0 -46.36 -100.75 0z"/>
   <path class="fil3" d="M213.71 274.61c-18.04,0 -32.67,14.62 -32.67,32.67 0,18.04 14.63,32.66 32.67,32.66 18.04,0 32.67,-14.62 32.67,-32.66 0,-18.05 -14.63,-32.67 -32.67,-32.67z"/>
   <path class="fil1" d="M231.67 325.23c-4.6,4.6 -10.95,7.44 -17.96,7.44 -7.01,0 -13.36,-2.84 -17.96,-7.44 -4.59,-4.59 -7.44,-10.94 -7.44,-17.95 0,-7.01 2.85,-13.37 7.44,-17.96 4.6,-4.6 10.95,-7.44 17.96,-7.44 7.01,0 13.36,2.84 17.96,7.44 4.59,4.59 7.44,10.95 7.44,17.96 0,7.01 -2.85,13.36 -7.44,17.95zm-17.96 -57.89c-11.03,0 -21.02,4.47 -28.24,11.69 -7.23,7.23 -11.7,17.22 -11.7,28.25 0,11.02 4.47,21.01 11.7,28.24 7.22,7.22 17.21,11.7 28.24,11.7 11.03,0 21.01,-4.48 28.24,-11.7 7.23,-7.23 11.7,-17.22 11.7,-28.24 0,-11.03 -4.47,-21.02 -11.7,-28.25 -7.23,-7.22 -17.21,-11.69 -28.24,-11.69z"/>
   <path class="fil2" d="M405.76 128.01c-1.85,0 -3.67,-0.16 -5.43,-0.46l37.18 64.4 41.98 0 -46.05 -79.78c-5.58,9.48 -15.89,15.84 -27.68,15.84z"/>
   <path class="fil1" d="M441.67 184.67l-28.88 -50.02c4.47,-0.8 8.68,-2.37 12.49,-4.55 2.56,-1.47 4.95,-3.22 7.11,-5.22l34.53 59.79 -25.25 0zm-8.16 -86.89l-6.32 10.73c-2.19,3.7 -5.34,6.81 -9.12,8.98 -3.62,2.07 -7.82,3.25 -12.31,3.25 -0.74,0 -1.45,-0.03 -2.13,-0.09 -0.79,-0.06 -1.49,-0.15 -2.11,-0.26l-15.17 -2.58 47 81.41 58.72 0 -52.35 -90.68 -6.21 -10.76z"/>
   <path class="fil3" d="M405.76 63.81c-17.73,0 -32.1,14.37 -32.1,32.1 0,17.73 14.37,32.1 32.1,32.1 17.73,0 32.1,-14.37 32.1,-32.1 0,-17.73 -14.37,-32.1 -32.1,-32.1z"/>
   <path class="fil1" d="M423.31 113.47c-4.49,4.49 -10.7,7.27 -17.55,7.27 -6.86,0 -13.07,-2.78 -17.56,-7.27 -4.49,-4.49 -7.27,-10.7 -7.27,-17.56 0,-6.86 2.78,-13.06 7.27,-17.55 4.49,-4.5 10.7,-7.28 17.56,-7.28 6.85,0 13.06,2.78 17.55,7.28 4.49,4.49 7.28,10.69 7.28,17.55 0,6.86 -2.78,13.06 -7.28,17.56zm-17.55 -56.93c-10.87,0 -20.72,4.41 -27.84,11.53 -7.13,7.12 -11.54,16.97 -11.54,27.84 0,10.87 4.41,20.71 11.54,27.84 7.12,7.12 16.97,11.53 27.84,11.53 10.87,0 20.71,-4.41 27.84,-11.53 7.12,-7.13 11.53,-16.97 11.53,-27.84 0,-10.87 -4.41,-20.72 -11.53,-27.84 -7.13,-7.12 -16.97,-11.53 -27.84,-11.53z"/>
   <path class="fil6" d="M667.66 291.37l0 31.82 81.11 0c-2.63,-4.71 -4.13,-10.14 -4.13,-15.91 0,-5.78 1.5,-11.2 4.13,-15.91l-81.11 0z"/>
   <path class="fil1" d="M738.33 315.91l-63.4 0 0 -17.27 63.4 0c-0.63,2.83 -0.96,5.72 -0.96,8.64 0,2.91 0.33,5.81 0.96,8.63zm14.37 -2.22c-0.51,-1.99 -0.79,-4.14 -0.79,-6.41 0,-2.28 0.28,-4.43 0.79,-6.41 0.55,-2.1 1.36,-4.11 2.41,-5.98l6.03 -10.79 -100.75 0 0 46.36 100.75 0 -6.04 -10.8c-1.04,-1.86 -1.85,-3.87 -2.4,-5.97z"/>
   <path class="fil3" d="M777.31 274.61c-18.04,0 -32.67,14.62 -32.67,32.67 0,18.04 14.63,32.66 32.67,32.66 18.04,0 32.67,-14.62 32.67,-32.66 0,-18.05 -14.63,-32.67 -32.67,-32.67z"/>
   <path class="fil1" d="M795.27 325.23c-4.6,4.6 -10.95,7.44 -17.96,7.44 -7.01,0 -13.36,-2.84 -17.96,-7.44 -4.59,-4.59 -7.44,-10.94 -7.44,-17.95 0,-7.01 2.85,-13.37 7.44,-17.96 4.6,-4.6 10.95,-7.44 17.96,-7.44 7.01,0 13.36,2.84 17.96,7.44 4.59,4.59 7.43,10.95 7.43,17.96 0,7.01 -2.84,13.36 -7.43,17.95zm-17.96 -57.89c-11.03,0 -21.02,4.47 -28.24,11.69 -7.23,7.23 -11.7,17.22 -11.7,28.25 0,11.02 4.47,21.01 11.7,28.24 7.22,7.22 17.21,11.7 28.24,11.7 11.03,0 21.01,-4.48 28.24,-11.7 7.23,-7.23 11.7,-17.22 11.7,-28.24 0,-11.03 -4.47,-21.02 -11.7,-28.25 -7.23,-7.22 -17.21,-11.69 -28.24,-11.69z"/>
   <path class="fil1" d="M724.61 680.97c-0.81,-13.53 -2.13,-26.62 -3.87,-39.22 -2.9,-20.92 -6.93,-40.5 -11.62,-58.57 26.37,-3.93 100.3,-26.24 93.18,-152.81 9.07,-3.91 33.84,-11.58 70.47,0.12 6.59,28.44 40.75,209.63 -148.16,250.48zm-458.2 0c-188.92,-40.85 -154.75,-222.04 -148.16,-250.48 36.63,-11.7 61.4,-4.03 70.46,-0.12 -7.11,126.57 66.81,148.88 93.18,152.81 -4.68,18.07 -8.71,37.65 -11.61,58.57 -1.74,12.6 -3.06,25.69 -3.87,39.22zm614.83 -262.94c-52.79,-18.37 -86.64,-0.28 -89.9,1.58 -2.44,1.31 -4.02,3.97 -3.81,6.91 8.73,122.63 -61.82,140.11 -82.27,142.6 -12.33,-42.6 -27.84,-75.66 -39.12,-96.54 -1.9,-3.53 -6.3,-4.85 -9.83,-2.95 -3.53,1.89 -4.86,6.3 -2.96,9.83 16.56,30.64 42.52,88.35 53.01,164.28 10.39,75.15 5.61,168.14 -38.41,270.42l-116.39 0c-6.45,-13.5 -11.51,-29.47 -14.28,-47.6 -2.53,-16.5 -3.14,-34.77 -1.17,-54.55 23.82,-5.92 44.76,-17.27 57.47,-34.07 2.42,-3.18 1.8,-7.73 -1.39,-10.14 -3.18,-2.42 -7.72,-1.79 -10.14,1.39 -11.29,14.89 -30.75,24.77 -52.89,29.65 -0.84,0.03 -1.64,0.21 -2.4,0.51 -20.16,4.08 -42.34,4.08 -62.51,0 -0.75,-0.3 -1.56,-0.48 -2.39,-0.51 -22.14,-4.88 -41.6,-14.76 -52.89,-29.65 -2.42,-3.18 -6.96,-3.81 -10.14,-1.39 -3.19,2.41 -3.81,6.96 -1.39,10.14 12.71,16.8 33.65,28.15 57.47,34.07 1.97,19.78 1.35,38.05 -1.17,54.55 -2.77,18.13 -7.83,34.1 -14.29,47.6l-116.38 0c-44.02,-102.28 -48.8,-195.27 -38.41,-270.42 10.49,-75.93 36.45,-133.64 53.01,-164.28 1.9,-3.53 0.57,-7.94 -2.96,-9.83 -3.52,-1.9 -7.93,-0.58 -9.83,2.95 -11.28,20.88 -26.79,53.94 -39.13,96.54 -20.44,-2.49 -90.99,-19.97 -82.26,-142.6 0.21,-2.94 -1.37,-5.6 -3.81,-6.91 -3.26,-1.86 -37.11,-19.95 -89.9,-1.58 -2.37,0.82 -4.03,2.75 -4.63,5 -0.18,0.65 -62.1,226.31 160.59,272.6 -2.04,67.11 9.04,144.42 45.44,227.56 0.37,0.86 0.89,1.61 1.52,2.24l-0.02 0.01c0.01,0.01 -0.23,-0.17 0.03,0.2 1.41,1.98 3.64,3.04 5.91,3.04l0 0.03 125.32 0c3.01,0 5.59,-1.84 6.7,-4.44 7.96,-15.55 14.22,-34.22 17.48,-55.55 2.5,-16.4 3.25,-34.39 1.65,-53.77 16.88,2.53 34.6,2.53 51.48,0 -1.6,19.38 -0.85,37.37 1.65,53.77 3.26,21.33 9.52,40 17.48,55.55 1.1,2.6 3.69,4.44 6.7,4.44l125.32 0 0 -0.03c2.27,0 4.5,-1.06 5.91,-3.04 0.26,-0.37 0.01,-0.19 0.02,-0.2l-0.01 -0.01c0.63,-0.63 1.15,-1.38 1.52,-2.24 36.4,-83.14 47.48,-160.45 45.43,-227.56 222.7,-46.29 160.77,-271.95 160.6,-272.6 -0.6,-2.25 -2.27,-4.18 -4.63,-5z"/>
   <path class="fil2" d="M557.58 112.17l-46.06 79.78 41.99 0 37.18 -64.4c-1.76,0.3 -3.58,0.46 -5.43,0.46 -11.79,0 -22.1,-6.36 -27.68,-15.84z"/>
   <path class="fil1" d="M549.35 184.67l-25.25 0 34.52 -59.79c2.17,2 4.55,3.75 7.12,5.22 3.81,2.18 8.02,3.75 12.49,4.55l-28.88 50.02zm38.04 -64.02c-0.68,0.06 -1.39,0.09 -2.13,0.09 -4.49,0 -8.69,-1.18 -12.31,-3.25 -3.78,-2.17 -6.94,-5.28 -9.12,-8.98l-6.32 -10.73 -52.27 90.53 -6.29 10.91 58.72 0 47 -81.41 -15.17 2.58c-0.62,0.11 -1.32,0.2 -2.11,0.26z"/>
   <path class="fil3" d="M585.26 63.81c-17.73,0 -32.1,14.37 -32.1,32.1 0,17.73 14.37,32.1 32.1,32.1 17.73,0 32.1,-14.37 32.1,-32.1 0,-17.73 -14.37,-32.1 -32.1,-32.1z"/>
   <path class="fil1" d="M602.82 113.47c-4.5,4.49 -10.7,7.27 -17.56,7.27 -6.85,0 -13.06,-2.78 -17.56,-7.27 -4.49,-4.49 -7.27,-10.7 -7.27,-17.56 0,-6.86 2.78,-13.06 7.27,-17.55 4.5,-4.5 10.71,-7.28 17.56,-7.28 6.86,0 13.07,2.78 17.56,7.28 4.49,4.49 7.27,10.69 7.27,17.55 0,6.86 -2.78,13.06 -7.27,17.56zm-17.56 -56.93c-10.87,0 -20.71,4.41 -27.84,11.53 -7.12,7.12 -11.53,16.97 -11.53,27.84 0,10.87 4.41,20.71 11.53,27.84 7.13,7.12 16.97,11.53 27.84,11.53 10.87,0 20.72,-4.41 27.84,-11.53 7.13,-7.13 11.53,-16.97 11.53,-27.84 0,-10.87 -4.4,-20.72 -11.53,-27.84 -7.12,-7.12 -16.97,-11.53 -27.84,-11.53z"/>
   <polygon class="fil7" points="404.25,260.63 344.2,320.68 344.2,336.97 420.54,260.63 "/>
   <polygon class="fil7" points="495.51,260.63 478.28,260.63 388.39,350.52 425.4,350.52 515.29,260.63 "/>
   <path class="fil7" d="M441.26 260.63l-89.02 89.02c1.42,0.56 2.97,0.87 4.58,0.87l10.84 0 89.89 -89.89 -16.29 0z"/>
   <polygon class="fil7" points="565.62,260.63 475.73,350.52 492.02,350.52 581.91,260.63 "/>
   <path class="fil7" d="M638.78 261.49l-89.03 89.03 37.01 0 60.06 -60.05 0 -17.22c0,-3.48 -1.42,-6.63 -3.7,-8.92 -1.23,-1.22 -2.7,-2.2 -4.34,-2.84z"/>
   <polygon class="fil7" points="602.63,260.63 512.74,350.52 529.03,350.52 618.92,260.63 "/>
   <path class="fil8" d="M255.11 823.16c-9.7,16.83 -11.52,37.89 -3.08,57.02 8.44,19.13 25.24,31.97 44.2,36.15 9.7,-16.83 11.52,-37.89 3.08,-57.02 -8.44,-19.13 -25.23,-31.97 -44.2,-36.15z"/>
   <path class="fil8" d="M258.09 873.83c-19.49,-7.55 -40.45,-4.76 -56.81,5.7 5.04,18.75 18.64,34.94 38.14,42.49 19.49,7.56 40.45,4.77 56.81,-5.69 -5.04,-18.76 -18.64,-34.94 -38.14,-42.5z"/>
   <path class="fil9" d="M254.49 883.14c-13.43,-5.2 -28.15,-4.71 -41.03,1.11l70.59 27.36c-5.59,-12.98 -16.14,-23.27 -29.56,-28.47z"/>
   <path class="fil9" d="M260.39 835.12l28.03 63.51c1.02,1.6 1.98,3.25 2.85,4.93 4.9,-12.92 4.61,-27.32 -1.09,-40.22 -5.81,-13.17 -16.57,-23.23 -29.79,-28.22z"/>
  </g>
 </g>
</svg>
